{
	"asset":{
		"copyright":"VitaminCo",
		"generator":"Khronos glTF Blender I/O v3.6.27",
		"version":"2.0"
	},
	"extensionsUsed":[
		"KHR_materials_specular",
		"KHR_materials_ior"
	],
	"scene":0,
	"scenes":[
		{
			"name":"Scene",
			"nodes":[
				0
			]
		}
	],
	"nodes":[
		{
			"mesh":0,
			"name":"Sofa2",
			"scale":[
				0.5024839043617249,
				0.5026261806488037,
				0.5026261806488037
			],
			"translation":[
				-0.08059897273778915,
				0.03377082943916321,
				0.02561219036579132
			]
		}
	],
	"materials":[
		{
			"doubleSided":true,
			"extensions":{
				"KHR_materials_specular":{
					"specularColorFactor":[
						0.8356212048057751,
						0.8356212048057751,
						0.8356212048057751
					]
				},
				"KHR_materials_ior":{
					"ior":1.4500000476837158
				}
			},
			"name":"Soft Objects.007",
			"pbrMetallicRoughness":{
				"baseColorFactor":[
					0.12260384857654572,
					0.011765277944505215,
					0.008008223958313465,
					1
				],
				"metallicFactor":0.2904762029647827,
				"roughnessFactor":0.4238095283508301
			}
		}
	],
	"meshes":[
		{
			"name":"Plane.013",
			"primitives":[
				{
					"attributes":{
						"POSITION":0,
						"NORMAL":1,
						"TEXCOORD_0":2
					},
					"indices":3,
					"material":0
				}
			]
		}
	],
	"accessors":[
		{
			"bufferView":0,
			"componentType":5126,
			"count":7106,
			"max":[
				1.0002832412719727,
				0.6954442262649536,
				0.4518866240978241
			],
			"min":[
				-1.0002832412719727,
				-0.0648248940706253,
				-0.45160341262817383
			],
			"type":"VEC3"
		},
		{
			"bufferView":1,
			"componentType":5126,
			"count":7106,
			"type":"VEC3"
		},
		{
			"bufferView":2,
			"componentType":5126,
			"count":7106,
			"type":"VEC2"
		},
		{
			"bufferView":3,
			"componentType":5123,
			"count":35772,
			"type":"SCALAR"
		}
	],
	"bufferViews":[
		{
			"buffer":0,
			"byteLength":85272,
			"byteOffset":0,
			"target":34962
		},
		{
			"buffer":0,
			"byteLength":85272,
			"byteOffset":85272,
			"target":34962
		},
		{
			"buffer":0,
			"byteLength":56848,
			"byteOffset":170544,
			"target":34962
		},
		{
			"buffer":0,
			"byteLength":71544,
			"byteOffset":227392,
			"target":34963
		}
	],
	"buffers":[
		{
			"byteLength":298936,
			"uri":"data:application/octet-stream;base64,"
		}
	]
}
