{
	"asset":{
		"copyright":"VitaminCo",
		"generator":"Khronos glTF Blender I/O v3.6.27",
		"version":"2.0"
	},
	"scene":0,
	"scenes":[
		{
			"name":"Scene",
			"nodes":[
				0
			]
		}
	],
	"nodes":[
		{
			"mesh":0,
			"name":"Sofa3",
			"scale":[
				0.4021010100841522,
				0.4021010100841522,
				0.4021010100841522
			],
			"translation":[
				1.2148480415344238,
				0.1560070961713791,
				0.2043939232826233
			]
		}
	],
	"materials":[
		{
			"doubleSided":true,
			"name":"Soft Objects.006",
			"pbrMetallicRoughness":{
				"baseColorFactor":[
					0.2917707860469818,
					0.00749895628541708,
					0.006995419505983591,
					1
				],
				"metallicFactor":0,
				"roughnessFactor":0.699999988079071
			}
		},
		{
			"doubleSided":true,
			"name":"Soft Objects.005",
			"pbrMetallicRoughness":{
				"baseColorFactor":[
					0.04926936328411102,
					0.01374754123389721,
					0.009690049104392529,
					1
				],
				"metallicFactor":0,
				"roughnessFactor":0.4000000059604645
			}
		}
	],
	"meshes":[
		{
			"name":"Plane.007",
			"primitives":[
				{
					"attributes":{
						"POSITION":0,
						"NORMAL":1,
						"TEXCOORD_0":2
					},
					"indices":3,
					"material":0
				},
				{
					"attributes":{
						"POSITION":4,
						"NORMAL":5,
						"TEXCOORD_0":6
					},
					"indices":7,
					"material":1
				}
			]
		}
	],
	"accessors":[
		{
			"bufferView":0,
			"componentType":5126,
			"count":4202,
			"max":[
				1.2007904052734375,
				0.6027448177337646,
				0.4621451795101166
			],
			"min":[
				-1.2007904052734375,
				-0.20052239298820496,
				-0.6535829305648804
			],
			"type":"VEC3"
		},
		{
			"bufferView":1,
			"componentType":5126,
			"count":4202,
			"type":"VEC3"
		},
		{
			"bufferView":2,
			"componentType":5126,
			"count":4202,
			"type":"VEC2"
		},
		{
			"bufferView":3,
			"componentType":5123,
			"count":21090,
			"type":"SCALAR"
		},
		{
			"bufferView":4,
			"componentType":5126,
			"count":96,
			"max":[
				1.0936559438705444,
				-0.19298574328422546,
				0.3764587342739105
			],
			"min":[
				-1.1103644371032715,
				-0.38544419407844543,
				-0.3860231637954712
			],
			"type":"VEC3"
		},
		{
			"bufferView":5,
			"componentType":5126,
			"count":96,
			"type":"VEC3"
		},
		{
			"bufferView":6,
			"componentType":5126,
			"count":96,
			"type":"VEC2"
		},
		{
			"bufferView":7,
			"componentType":5123,
			"count":144,
			"type":"SCALAR"
		}
	],
	"bufferViews":[
		{
			"buffer":0,
			"byteLength":50424,
			"byteOffset":0,
			"target":34962
		},
		{
			"buffer":0,
			"byteLength":50424,
			"byteOffset":50424,
			"target":34962
		},
		{
			"buffer":0,
			"byteLength":33616,
			"byteOffset":100848,
			"target":34962
		},
		{
			"buffer":0,
			"byteLength":42180,
			"byteOffset":134464,
			"target":34963
		},
		{
			"buffer":0,
			"byteLength":1152,
			"byteOffset":176644,
			"target":34962
		},
		{
			"buffer":0,
			"byteLength":1152,
			"byteOffset":177796,
			"target":34962
		},
		{
			"buffer":0,
			"byteLength":768,
			"byteOffset":178948,
			"target":34962
		},
		{
			"buffer":0,
			"byteLength":288,
			"byteOffset":179716,
			"target":34963
		}
	],
	"buffers":[
		{
			"byteLength":180004,
			"uri":"data:application/octet-stream;base64,"
		}
	]
}
